<svg width="29" height="29" viewBox="0 0 29 29" xmlns="http://www.w3.org/2000/svg">
    <path d="M21.589 21.306a.768.768 0 0 1-.764.766H19.79a.768.768 0 0 1-.764-.766V16.07h-3.367v5.237a.767.767 0 0 1-.765.766H13.86a.767.767 0 0 1-.765-.766V16.07H7.93a.767.767 0 0 1-.764-.766v-7.04c0-.42.344-.765.764-.765h1.035c.42 0 .764.345.764.766V13.5h3.367V8.264c0-.421.345-.766.765-.766h1.034c.42 0 .765.345.765.766V13.5h3.367V8.264c0-.421.344-.766.764-.766h1.035c.42 0 .764.345.764.766v13.042zM14.5 0C6.492 0 0 6.492 0 14.5S6.492 29 14.5 29 29 22.508 29 14.5 22.508 0 14.5 0z" fill="#d1bdb2" fill-rule="evenodd"/>
</svg>
