<svg width="25" height="24" viewBox="0 0 25 24" xmlns="http://www.w3.org/2000/svg">
    <path d="M25 10v12.165A1.84 1.84 0 0 1 23.157 24H1.843A1.84 1.84 0 0 1 0 22.165V10h25zM23.156 0C24.175 0 25 .816 25 1.822V8H0V1.822C0 .816.825 0 1.843 0zm-2.793 2.787c-.77 0-1.394.616-1.394 1.377s.624 1.378 1.394 1.378c.77 0 1.394-.617 1.394-1.378 0-.76-.624-1.377-1.394-1.377zM4.757 2.746c-.77 0-1.395.616-1.395 1.377s.625 1.378 1.395 1.378S6.15 4.884 6.15 4.123c0-.76-.624-1.377-1.394-1.377z" fill="#d1bdb2" fill-rule="evenodd"/>
</svg>
