<svg width="30" height="32" viewBox="0 0 30 32" xmlns="http://www.w3.org/2000/svg">
    <path d="M27.76 21.159c1.704 3.557 1.853 6.285 1.046 10.373h-3.531c.81-3.335.783-5.438-.685-8.5zM.723.445c.216-.477.606-.478.857-.418l18.446 6.654.199.072c.375.152 1.2.565 1.78 1.44l5.976 10.34s.376.75-.288 1.154l-4.282 2.61c-.187.07-.628.178-.941-.198l-.286-.494-7.118 4.392c-.769.456-1.227-.04-1.401-.302l-3.315-5.736a4.813 4.813 0 0 1-.663-2.946l1.442-7.876L.514 2.816c-.595-.34-.54-.736-.476-.91zm13.19 10.35L12.632 17.8l2.583 4.47 5.422-3.344-2.168-3.75c-1.14 2.665-3.992 4.45-3.992 4.45l-.706-1.194c2.06-1.436 2.758-4.786 2.944-5.968l-2.8-1.668z" fill="#d1bdb2" fill-rule="evenodd"/>
</svg>
