<svg width="28" height="24" viewBox="0 0 28 24" xmlns="http://www.w3.org/2000/svg">
    <path d="M5.105 7.156h1.199l.847-2.09c.21-.519.462-1.017 1.026-1.017h2.16V2.356H8.368a.414.414 0 0 1-.415-.412V.412c0-.227.187-.412.415-.412h10.54c.229 0 .415.185.415.412v1.532a.415.415 0 0 1-.414.412h-1.97v1.693h2.16c.565 0 .815.498 1.026 1.017l.848 2.09h6.002c.564 0 1.025.458 1.025 1.017v10.458c0 .56-.462 1.018-1.025 1.018h-2.291l-.848 3.333c-.138.543-.461 1.018-1.025 1.018H11.888c-.564 0-.871-.48-1.026-1.018l-.847-2.95h-4.91a1.025 1.025 0 0 1-1.026-1.017V16.87H2.374v1.954a.414.414 0 0 1-.415.412H.415A.414.414 0 0 1 0 18.824V8.364c0-.227.187-.413.415-.413h1.544c.228 0 .415.186.415.412v1.955h1.705V8.173c0-.56.462-1.017 1.026-1.017" fill="#F37121" fill-rule="evenodd"/>
</svg>
